HIERARCHY
ROOT Hips
{
	OFFSET -7.591412 85.680603 15.998792
	CHANNELS 6 Xposition Yposition Zposition Zrotation Yrotation Xrotation 
	JOINT Spine
	{
		OFFSET -0.000000 8.814246 -2.080107
		CHANNELS 3 Zrotation Yrotation Xrotation
		JOINT Spine1
		{
			OFFSET -0.000000 8.844141 0.000000
			CHANNELS 3 Zrotation Yrotation Xrotation
			JOINT Spine2
			{
				OFFSET 0.000000 11.682268 0.000000
				CHANNELS 3 Zrotation Yrotation Xrotation
				JOINT Spine3
				{
					OFFSET 0.000000 11.746700 0.000000
					CHANNELS 3 Zrotation Yrotation Xrotation
					JOINT Neck
					{
						OFFSET -0.000000 17.658264 -0.000000
						CHANNELS 3 Zrotation Yrotation Xrotation
						JOINT Neck1
						{
							OFFSET 0.000000 5.101515 0.000000
							CHANNELS 3 Zrotation Yrotation Xrotation
							JOINT Head
							{
								OFFSET 0.000000 5.101515 0.000000
								CHANNELS 3 Zrotation Yrotation Xrotation
								JOINT HeadEnd
								{
									OFFSET 0.000000 11.655085 -0.000000
									CHANNELS 3 Zrotation Yrotation Xrotation
									End Site
									{
										OFFSET 0.000000 0.000000 0.000000
									}
								}
							}
						}
					}
					JOINT RightShoulder
					{
						OFFSET -2.625389 11.175210 -0.000000
						CHANNELS 3 Zrotation Yrotation Xrotation
						JOINT RightArm
						{
							OFFSET -0.000000 10.434715 -0.000000
							CHANNELS 3 Zrotation Yrotation Xrotation
							JOINT RightForeArm
							{
								OFFSET 0.000000 29.628420 0.000000
								CHANNELS 3 Zrotation Yrotation Xrotation
								JOINT RightHand
								{
									OFFSET -0.000000 22.857611 -0.000000
									CHANNELS 3 Zrotation Yrotation Xrotation
									JOINT RightHandThumb1
									{
										OFFSET -2.867323 3.959563 2.944291
										CHANNELS 3 Zrotation Yrotation Xrotation
										JOINT RightHandThumb2
										{
											OFFSET 0.000000 3.350399 0.000000
											CHANNELS 3 Zrotation Yrotation Xrotation
											JOINT RightHandThumb3
											{
												OFFSET 0.000000 3.756509 -0.000000
												CHANNELS 3 Zrotation Yrotation Xrotation
												JOINT RightHandThumb4
												{
													OFFSET 0.000000 3.147345 0.000000
													CHANNELS 3 Zrotation Yrotation Xrotation
													End Site
													{
														OFFSET 0.000000 0.000000 0.000000
													}
												}
											}
										}
									}
									JOINT RightHandIndex1
									{
										OFFSET -0.086752 10.030893 2.345280
										CHANNELS 3 Zrotation Yrotation Xrotation
										JOINT RightHandIndex2
										{
											OFFSET 0.000000 4.061090 0.000000
											CHANNELS 3 Zrotation Yrotation Xrotation
											JOINT RightHandIndex3
											{
												OFFSET 0.000000 3.248873 0.000000
												CHANNELS 3 Zrotation Yrotation Xrotation
												JOINT RightHandIndex4
												{
													OFFSET 0.000000 2.639709 0.000000
													CHANNELS 3 Zrotation Yrotation Xrotation
													End Site
													{
														OFFSET 0.000000 0.000000 0.000000
													}
												}
											}
										}
									}
									JOINT RightHandMiddle1
									{
										OFFSET 0.104102 9.502952 0.006768
										CHANNELS 3 Zrotation Yrotation Xrotation
										JOINT RightHandMiddle2
										{
											OFFSET 0.000000 4.568727 0.000000
											CHANNELS 3 Zrotation Yrotation Xrotation
											JOINT RightHandMiddle3
											{
												OFFSET -0.000000 3.654981 -0.000000
												CHANNELS 3 Zrotation Yrotation Xrotation
												JOINT RightHandMiddle4
												{
													OFFSET 0.000000 2.741236 0.000000
													CHANNELS 3 Zrotation Yrotation Xrotation
													End Site
													{
														OFFSET 0.000000 0.000000 0.000000
													}
												}
											}
										}
									}
									JOINT RightHandRing1
									{
										OFFSET 0.086752 8.921708 -2.267442
										CHANNELS 3 Zrotation Yrotation Xrotation
										JOINT RightHandRing2
										{
											OFFSET -0.000000 4.061090 0.000000
											CHANNELS 3 Zrotation Yrotation Xrotation
											JOINT RightHandRing3
											{
												OFFSET -0.000000 3.654981 -0.000000
												CHANNELS 3 Zrotation Yrotation Xrotation
												JOINT RightHandRing4
												{
													OFFSET 0.000000 2.741236 0.000000
													CHANNELS 3 Zrotation Yrotation Xrotation
													End Site
													{
														OFFSET 0.000000 0.000000 0.000000
													}
												}
											}
										}
									}
									JOINT RightHandPinky1
									{
										OFFSET -0.173504 7.976997 -4.467199
										CHANNELS 3 Zrotation Yrotation Xrotation
										JOINT RightHandPinky2
										{
											OFFSET 0.000000 3.350399 0.000000
											CHANNELS 3 Zrotation Yrotation Xrotation
											JOINT RightHandPinky3
											{
												OFFSET 0.000000 2.842763 0.000000
												CHANNELS 3 Zrotation Yrotation Xrotation
												JOINT RightHandPinky4
												{
													OFFSET 0.000000 2.639709 0.000000
													CHANNELS 3 Zrotation Yrotation Xrotation
													End Site
													{
														OFFSET 0.000000 0.000000 0.000000
													}
												}
											}
										}
									}
									JOINT RightForeArmEnd
									{
										OFFSET 0.000000 0.000000 0.000000
										CHANNELS 3 Zrotation Yrotation Xrotation
										End Site
										{
											OFFSET 0.000000 0.000000 0.000000
										}
									}
								}
								JOINT RightArmEnd
								{
									OFFSET 0.000000 0.000000 0.000000
									CHANNELS 3 Zrotation Yrotation Xrotation
									End Site
									{
										OFFSET 0.000000 0.000000 0.000000
									}
								}
							}
						}
					}
					JOINT LeftShoulder
					{
						OFFSET 2.625389 11.175210 -0.000000
						CHANNELS 3 Zrotation Yrotation Xrotation
						JOINT LeftArm
						{
							OFFSET 0.000000 10.813635 0.000000
							CHANNELS 3 Zrotation Yrotation Xrotation
							JOINT LeftForeArm
							{
								OFFSET 0.000000 28.724781 -0.000000
								CHANNELS 3 Zrotation Yrotation Xrotation
								JOINT LeftHand
								{
									OFFSET 0.644384 25.716167 -0.328871
									CHANNELS 3 Zrotation Yrotation Xrotation
									JOINT LeftHandThumb1
									{
										OFFSET 2.867323 3.959563 2.944291
										CHANNELS 3 Zrotation Yrotation Xrotation
										JOINT LeftHandThumb2
										{
											OFFSET -0.000000 3.350399 -0.000000
											CHANNELS 3 Zrotation Yrotation Xrotation
											JOINT LeftHandThumb3
											{
												OFFSET 0.000000 3.756509 -0.000000
												CHANNELS 3 Zrotation Yrotation Xrotation
												JOINT LeftHandThumb4
												{
													OFFSET 0.000000 3.100000 -0.000000
													CHANNELS 3 Zrotation Yrotation Xrotation
													End Site
													{
														OFFSET 0.000000 0.000000 0.000000
													}
												}
											}
										}
									}
									JOINT LeftHandIndex1
									{
										OFFSET 0.086752 10.030893 2.345280
										CHANNELS 3 Zrotation Yrotation Xrotation
										JOINT LeftHandIndex2
										{
											OFFSET -0.000000 4.061090 0.000000
											CHANNELS 3 Zrotation Yrotation Xrotation
											JOINT LeftHandIndex3
											{
												OFFSET -0.000000 3.248873 0.000000
												CHANNELS 3 Zrotation Yrotation Xrotation
												JOINT LeftHandIndex4
												{
													OFFSET 0.000000 2.639709 -0.000000
													CHANNELS 3 Zrotation Yrotation Xrotation
													End Site
													{
														OFFSET 0.000000 0.000000 0.000000
													}
												}
											}
										}
									}
									JOINT LeftHandMiddle1
									{
										OFFSET -0.104102 9.502952 0.006768
										CHANNELS 3 Zrotation Yrotation Xrotation
										JOINT LeftHandMiddle2
										{
											OFFSET -0.000000 4.568727 0.000000
											CHANNELS 3 Zrotation Yrotation Xrotation
											JOINT LeftHandMiddle3
											{
												OFFSET 0.000000 3.654981 -0.000000
												CHANNELS 3 Zrotation Yrotation Xrotation
												JOINT LeftHandMiddle4
												{
													OFFSET -0.000000 2.741236 0.000000
													CHANNELS 3 Zrotation Yrotation Xrotation
													End Site
													{
														OFFSET 0.000000 0.000000 0.000000
													}
												}
											}
										}
									}
									JOINT LeftHandRing1
									{
										OFFSET -0.086752 8.921708 -2.267442
										CHANNELS 3 Zrotation Yrotation Xrotation
										JOINT LeftHandRing2
										{
											OFFSET -0.000000 4.061090 0.000000
											CHANNELS 3 Zrotation Yrotation Xrotation
											JOINT LeftHandRing3
											{
												OFFSET 0.000000 3.654981 -0.000000
												CHANNELS 3 Zrotation Yrotation Xrotation
												JOINT LeftHandRing4
												{
													OFFSET 0.000000 2.741236 -0.000000
													CHANNELS 3 Zrotation Yrotation Xrotation
													End Site
													{
														OFFSET 0.000000 0.000000 0.000000
													}
												}
											}
										}
									}
									JOINT LeftHandPinky1
									{
										OFFSET 0.173504 7.976997 -4.467199
										CHANNELS 3 Zrotation Yrotation Xrotation
										JOINT LeftHandPinky2
										{
											OFFSET 0.000000 3.350399 0.000000
											CHANNELS 3 Zrotation Yrotation Xrotation
											JOINT LeftHandPinky3
											{
												OFFSET -0.000000 2.842763 0.000000
												CHANNELS 3 Zrotation Yrotation Xrotation
												JOINT LeftHandPinky4
												{
													OFFSET 0.000000 2.639709 -0.000000
													CHANNELS 3 Zrotation Yrotation Xrotation
													End Site
													{
														OFFSET 0.000000 0.000000 0.000000
													}
												}
											}
										}
									}
									JOINT LeftForeArmEnd
									{
										OFFSET 0.000000 0.000000 0.000000
										CHANNELS 3 Zrotation Yrotation Xrotation
										End Site
										{
											OFFSET 0.000000 0.000000 0.000000
										}
									}
								}
								JOINT LeftArmEnd
								{
									OFFSET 0.000000 0.000000 0.000000
									CHANNELS 3 Zrotation Yrotation Xrotation
									End Site
									{
										OFFSET 0.000000 0.000000 0.000000
									}
								}
							}
						}
					}
				}
			}
		}
	}
	JOINT RightUpLeg
	{
		OFFSET -11.289943 0.000000 -0.000000
		CHANNELS 3 Zrotation Yrotation Xrotation
		JOINT RightLeg
		{
			OFFSET 0.000000 -38.200325 0.000000
			CHANNELS 3 Zrotation Yrotation Xrotation
			JOINT RightFoot
			{
				OFFSET -0.000000 -39.900856 0.000000
				CHANNELS 3 Zrotation Yrotation Xrotation
				JOINT RightToeBase
				{
					OFFSET -0.000000 -0.000000 15.261641
					CHANNELS 3 Zrotation Yrotation Xrotation
					JOINT RightToeBaseEnd
					{
						OFFSET -0.000000 0.000000 7.370709
						CHANNELS 3 Zrotation Yrotation Xrotation
						End Site
						{
							OFFSET 0.000000 0.000000 0.000000
						}
					}
				}
				JOINT RightLegEnd
				{
					OFFSET 0.000000 0.000000 0.000000
					CHANNELS 3 Zrotation Yrotation Xrotation
					End Site
					{
						OFFSET 0.000000 0.000000 0.000000
					}
				}
			}
			JOINT RightUpLegEnd
			{
				OFFSET 0.000000 0.000000 0.000000
				CHANNELS 3 Zrotation Yrotation Xrotation
				End Site
				{
					OFFSET 0.000000 0.000000 0.000000
				}
			}
		}
	}
	JOINT LeftUpLeg
	{
		OFFSET 11.315661 0.000000 -0.000000
		CHANNELS 3 Zrotation Yrotation Xrotation
		JOINT LeftLeg
		{
			OFFSET -0.000000 -38.200325 0.000000
			CHANNELS 3 Zrotation Yrotation Xrotation
			JOINT LeftFoot
			{
				OFFSET 0.000000 -39.900856 0.000000
				CHANNELS 3 Zrotation Yrotation Xrotation
				JOINT LeftToeBase
				{
					OFFSET -0.000000 -0.000000 15.261641
					CHANNELS 3 Zrotation Yrotation Xrotation
					JOINT LeftToeBaseEnd
					{
						OFFSET 0.000000 -0.000000 7.539996
						CHANNELS 3 Zrotation Yrotation Xrotation
						End Site
						{
							OFFSET 0.000000 0.000000 0.000000
						}
					}
				}
				JOINT LeftLegEnd
				{
					OFFSET 0.000000 0.000000 0.000000
					CHANNELS 3 Zrotation Yrotation Xrotation
					End Site
					{
						OFFSET 0.000000 0.000000 0.000000
					}
				}
			}
			JOINT LeftUpLegEnd
			{
				OFFSET 0.000000 0.000000 0.000000
				CHANNELS 3 Zrotation Yrotation Xrotation
				End Site
				{
					OFFSET 0.000000 0.000000 0.000000
				}
			}
		}
	}
}
MOTION
Frames: 5
Frame Time: 0.016667
-7.591412 85.680603 15.998792 -4.767127 11.557394 -13.779740 3.663215 -0.830096 6.631912 4.159350 -1.467330 4.078520 1.034170 -2.593960 15.110615 -1.883861 -0.761878 1.517920 4.300606 -1.220441 8.245426 -4.143120 -2.428157 -8.754904 0.746999 3.693979 -23.683704 -0.000000 0.000000 0.000000 94.381584 -0.454673 5.250540 61.589668 -27.152189 -2.458915 1.752302 19.073700 88.947044 -10.091249 -12.555850 2.411650 15.136321 -2.071817 37.965195 0.000000 0.000000 -36.720001 -0.000000 -0.000000 -25.500000 0.000000 0.000000 0.000000 36.448582 0.000000 -9.002179 25.514008 -0.000000 -0.000000 25.514008 0.000000 -0.000000 -0.000000 0.000000 -0.000000 35.812260 0.000000 -10.172069 25.068583 0.000000 0.000000 25.068583 0.000000 -0.000000 0.000000 0.000000 0.000000 35.634552 0.000000 -11.705454 24.944187 0.000000 -0.000000 24.944187 -0.000000 0.000000 0.000000 0.000000 0.000000 33.563229 0.000000 -14.513725 23.494261 0.000000 -0.000000 23.494261 -0.000000 -0.000000 -0.000000 0.000000 -0.000000 0.000000 -0.000000 -0.000000 0.000000 0.000000 0.000000 -91.189331 0.139755 5.326938 -65.267883 40.797058 -4.571587 0.842140 -15.699529 87.638260 21.670740 -11.469487 7.672852 -15.436551 2.076864 37.844463 -0.000000 0.000000 -37.439999 0.000000 -0.000000 -26.000000 0.000000 0.000000 0.000000 -41.834457 -0.000000 -16.932806 -29.284121 -0.000000 0.000000 -29.284121 -0.000000 -0.000000 -0.000000 -0.000000 0.000000 -45.594517 -0.000000 -15.558887 -31.916162 -0.000000 0.000000 -31.916162 -0.000000 -0.000000 0.000000 0.000000 0.000000 -57.984913 -0.000000 -8.680665 -40.589439 -0.000000 0.000000 -40.589439 0.000000 -0.000000 0.000000 -0.000000 -0.000000 -67.667137 -0.000000 -1.207732 -47.366997 0.000000 0.000000 -47.366997 -0.000000 -0.000000 0.000000 -0.000000 -0.000000 -0.000000 -0.000000 0.000000 -0.000000 -0.000000 -0.000000 10.579215 -10.190758 15.721338 -0.043297 -0.235190 10.460327 -10.361047 -20.395756 15.621568 0.246565 -1.171920 -29.571836 0.000000 0.000000 -0.000000 0.000000 -0.000000 -0.000000 0.000000 -0.000000 -0.000000 20.729530 4.084809 7.542109 0.585269 1.410325 22.534296 -8.693747 -1.427670 14.080520 0.860038 0.842473 -28.882187 -0.000000 0.000000 0.000000 -0.000000 0.000000 -0.000000 -0.000000 0.000000 -0.000000 
-7.559331 85.683716 16.046677 -4.757925 11.553969 -13.750456 3.657434 -0.830200 6.631421 4.142704 -1.461597 4.081568 1.034283 -2.594519 15.056220 -1.864734 -0.765494 1.516132 4.278264 -1.034469 8.258862 -4.123512 -2.250425 -8.747525 0.700640 3.698329 -23.656549 -0.000000 -0.000000 0.000000 94.352432 -0.451876 5.250170 61.601608 -27.157021 -2.457165 1.750112 19.062014 88.960396 -10.096271 -12.534568 2.401685 15.136321 -2.071817 37.965195 -0.000000 0.000000 -36.720001 0.000000 0.000000 -25.500000 -0.000000 0.000000 0.000000 36.437916 -0.000000 -8.969304 25.506542 0.000000 0.000000 25.506542 -0.000000 0.000000 0.000000 -0.000000 0.000000 35.802650 0.000000 -10.146590 25.061855 -0.000000 -0.000000 25.061855 0.000000 0.000000 -0.000000 -0.000000 -0.000000 35.625156 0.000000 -11.683584 24.937609 0.000000 -0.000000 24.937609 -0.000000 -0.000000 -0.000000 -0.000000 -0.000000 33.553883 0.000000 -14.489616 23.487719 -0.000000 0.000000 23.487719 0.000000 -0.000000 0.000000 0.000000 -0.000000 0.000000 -0.000000 -0.000000 0.000000 0.000000 -0.000000 -91.194382 0.140155 5.332596 -65.247437 40.807945 -4.584927 0.841927 -15.707633 87.632339 21.685589 -11.437108 7.673906 -15.436551 2.076864 37.844463 -0.000000 0.000000 -37.439999 -0.000000 -0.000000 -26.000000 0.000000 0.000000 0.000000 -41.842171 0.000000 -16.853592 -29.289518 0.000000 0.000000 -29.289518 -0.000000 -0.000000 0.000000 -0.000000 -0.000000 -45.606445 0.000000 -15.481131 -31.924511 -0.000000 0.000000 -31.924511 -0.000000 -0.000000 -0.000000 0.000000 0.000000 -57.992237 0.000000 -8.607185 -40.594566 0.000000 -0.000000 -40.594566 -0.000000 -0.000000 -0.000000 -0.000000 0.000000 -67.658379 0.000000 -1.145470 -47.360867 0.000000 0.000000 -47.360867 -0.000000 0.000000 0.000000 -0.000000 -0.000000 -0.000000 -0.000000 -0.000000 -0.000000 -0.000000 -0.000000 10.549145 -10.195450 15.725886 -0.044004 -0.238647 10.474322 -10.324595 -20.381243 15.596793 0.241903 -1.170032 -29.568653 -0.000000 0.000000 -0.000000 -0.000000 -0.000000 0.000000 0.000000 -0.000000 -0.000000 20.709885 4.112294 7.571725 0.586652 1.414683 22.509146 -8.683043 -1.427601 14.060700 0.860135 0.839658 -28.877766 -0.000000 -0.000000 0.000000 -0.000000 0.000000 -0.000000 0.000000 -0.000000 -0.000000 
-7.527240 85.685806 16.094477 -4.749177 11.544899 -13.719861 3.650469 -0.830289 6.626160 4.117935 -1.455668 4.086763 1.035397 -2.594423 15.003360 -1.846383 -0.766972 1.514897 4.258247 -0.832852 8.270300 -4.099308 -2.050500 -8.745764 0.654858 3.704379 -23.627073 -0.000000 0.000000 -0.000000 94.319977 -0.448773 5.249830 61.624294 -27.155828 -2.474651 1.748392 19.056667 88.973877 -10.106398 -12.524319 2.383352 15.136321 -2.071817 37.965195 -0.000000 -0.000000 -36.720001 0.000000 -0.000000 -25.500000 0.000000 0.000000 -0.000000 36.440376 -0.000000 -8.943801 25.508263 0.000000 -0.000000 25.508263 -0.000000 -0.000000 -0.000000 0.000000 0.000000 35.804043 -0.000000 -10.125744 25.062830 0.000000 0.000000 25.062830 0.000000 0.000000 -0.000000 -0.000000 -0.000000 35.622269 0.000000 -11.657626 24.935587 -0.000000 -0.000000 24.935587 0.000000 -0.000000 -0.000000 -0.000000 -0.000000 33.545807 0.000000 -14.450027 23.482065 -0.000000 0.000000 23.482065 -0.000000 0.000000 -0.000000 -0.000000 -0.000000 0.000000 -0.000000 -0.000000 0.000000 0.000000 -0.000000 -91.200874 0.140654 5.336691 -65.220978 40.824459 -4.579934 0.841743 -15.711525 87.629066 21.684944 -11.441099 7.692139 -15.436551 2.076864 37.844463 -0.000000 0.000000 -37.439999 -0.000000 -0.000000 -26.000000 0.000000 0.000000 0.000000 -41.828091 -0.000000 -16.814816 -29.279663 -0.000000 0.000000 -29.279663 -0.000000 0.000000 -0.000000 0.000000 -0.000000 -45.590759 -0.000000 -15.448786 -31.913530 -0.000000 0.000000 -31.913530 -0.000000 0.000000 0.000000 -0.000000 0.000000 -57.961048 -0.000000 -8.590992 -40.572735 -0.000000 0.000000 -40.572735 0.000000 -0.000000 0.000000 -0.000000 0.000000 -67.610672 -0.000000 -1.145636 -47.327473 0.000000 -0.000000 -47.327473 -0.000000 0.000000 0.000000 -0.000000 -0.000000 -0.000000 -0.000000 -0.000000 -0.000000 -0.000000 0.000000 10.519780 -10.201176 15.727947 -0.044752 -0.242014 10.487461 -10.288795 -20.363386 15.568658 0.237127 -1.168312 -29.557241 0.000000 -0.000000 -0.000000 0.000000 0.000000 -0.000000 0.000000 -0.000000 -0.000000 20.691946 4.143289 7.600645 0.588053 1.419176 22.487564 -8.672324 -1.427090 14.036017 0.860058 0.837159 -28.876450 -0.000000 -0.000000 0.000000 0.000000 -0.000000 -0.000000 -0.000000 0.000000 -0.000000 
-7.493860 85.689606 16.140953 -4.744417 11.541155 -13.693123 3.645744 -0.830330 6.610854 4.102851 -1.450911 4.101691 1.046835 -2.593792 14.957546 -1.824018 -0.767854 1.513996 4.241076 -0.634641 8.273811 -4.078160 -1.844321 -8.744829 0.608804 3.706263 -23.607744 -0.000000 0.000000 0.000000 94.288300 -0.445743 5.249530 61.629047 -27.158035 -2.477646 1.747547 19.054819 88.992607 -10.117738 -12.519838 2.354765 15.136321 -2.071817 37.965195 0.000000 0.000000 -36.720001 -0.000000 -0.000000 -25.500000 -0.000000 0.000000 -0.000000 36.449924 -0.000000 -8.917746 25.514946 0.000000 0.000000 25.514946 -0.000000 0.000000 -0.000000 0.000000 -0.000000 35.811447 -0.000000 -10.103592 25.068014 -0.000000 0.000000 25.068014 0.000000 -0.000000 -0.000000 -0.000000 -0.000000 35.623142 -0.000000 -11.628894 24.936199 -0.000000 -0.000000 24.936199 -0.000000 -0.000000 0.000000 0.000000 0.000000 33.539085 -0.000000 -14.406083 23.477362 0.000000 -0.000000 23.477362 0.000000 -0.000000 -0.000000 -0.000000 -0.000000 0.000000 -0.000000 -0.000000 0.000000 0.000000 0.000000 -91.207321 0.141156 5.341137 -65.181274 40.826160 -4.555555 0.841546 -15.699653 87.625481 21.679577 -11.458681 7.721836 -15.436551 2.076864 37.844463 0.000000 -0.000000 -37.439999 -0.000000 0.000000 -26.000000 -0.000000 0.000000 -0.000000 -41.793114 -0.000000 -16.807323 -29.255180 -0.000000 0.000000 -29.255180 -0.000000 -0.000000 0.000000 0.000000 -0.000000 -45.553524 -0.000000 -15.446842 -31.887466 0.000000 0.000000 -31.887466 -0.000000 -0.000000 0.000000 0.000000 0.000000 -57.910461 0.000000 -8.607141 -40.537323 -0.000000 0.000000 -40.537323 -0.000000 -0.000000 0.000000 -0.000000 -0.000000 -67.549385 0.000000 -1.181596 -47.284569 -0.000000 0.000000 -47.284569 0.000000 0.000000 -0.000000 0.000000 -0.000000 -0.000000 -0.000000 0.000000 -0.000000 -0.000000 -0.000000 10.490197 -10.207115 15.729300 -0.045503 -0.245435 10.504805 -10.251730 -20.339493 15.547073 0.232516 -1.167008 -29.553350 -0.000000 -0.000000 -0.000000 0.000000 0.000000 -0.000000 0.000000 -0.000000 -0.000000 20.674446 4.165871 7.627545 0.589481 1.423794 22.469559 -8.661949 -1.424462 14.014067 0.859826 0.835181 -28.875969 -0.000000 -0.000000 0.000000 0.000000 0.000000 0.000000 -0.000000 0.000000 -0.000000 
-7.459464 85.692741 16.186897 -4.739812 11.539833 -13.663512 3.641214 -0.830293 6.599647 4.088610 -1.447494 4.114500 1.050783 -2.592745 14.900841 -1.806173 -0.768120 1.513355 4.236039 -0.452541 8.280687 -4.063012 -1.642894 -8.740750 0.565270 3.703467 -23.597630 -0.000000 -0.000000 0.000000 94.260567 -0.443080 5.249285 61.636490 -27.168863 -2.486894 1.746870 19.057293 89.006203 -10.134996 -12.515663 2.328999 15.136321 -2.071817 37.965195 -0.000000 0.000000 -36.720001 -0.000000 0.000000 -25.500000 0.000000 0.000000 -0.000000 36.466022 0.000000 -8.894208 25.526215 -0.000000 0.000000 25.526215 0.000000 0.000000 0.000000 -0.000000 -0.000000 35.824471 -0.000000 -10.083001 25.077129 0.000000 0.000000 25.077129 -0.000000 0.000000 -0.000000 0.000000 0.000000 35.627972 0.000000 -11.602644 24.939579 -0.000000 0.000000 24.939579 0.000000 0.000000 0.000000 0.000000 0.000000 33.534702 0.000000 -14.367225 23.474293 -0.000000 -0.000000 23.474293 -0.000000 -0.000000 -0.000000 0.000000 -0.000000 0.000000 -0.000000 -0.000000 0.000000 0.000000 -0.000000 -91.212250 0.141505 5.345161 -65.150505 40.813145 -4.540086 0.841376 -15.680854 87.621758 21.677341 -11.451407 7.746943 -15.436551 2.076864 37.844463 -0.000000 -0.000000 -37.439999 0.000000 -0.000000 -26.000000 0.000000 0.000000 0.000000 -41.743572 0.000000 -16.804451 -29.220501 -0.000000 0.000000 -29.220501 -0.000000 0.000000 -0.000000 0.000000 -0.000000 -45.507950 0.000000 -15.442144 -31.855564 0.000000 -0.000000 -31.855564 -0.000000 -0.000000 -0.000000 0.000000 -0.000000 -57.864681 0.000000 -8.612138 -40.505276 -0.000000 -0.000000 -40.505276 -0.000000 0.000000 0.000000 0.000000 -0.000000 -67.498177 0.000000 -1.209794 -47.248722 0.000000 0.000000 -47.248722 0.000000 -0.000000 0.000000 -0.000000 0.000000 -0.000000 -0.000000 -0.000000 -0.000000 0.000000 0.000000 10.458692 -10.217832 15.730055 -0.046259 -0.248818 10.519701 -10.214319 -20.312746 15.522960 0.227823 -1.164907 -29.545198 -0.000000 -0.000000 -0.000000 0.000000 0.000000 -0.000000 0.000000 -0.000000 -0.000000 20.653131 4.180328 7.646270 0.590945 1.428357 22.457678 -8.651690 -1.416147 13.988552 0.859558 0.833543 -28.876219 -0.000000 -0.000000 0.000000 -0.000000 0.000000 0.000000 -0.000000 -0.000000 -0.000000 
